<svg xmlns="http://www.w3.org/2000/svg" viewBox="0 0 64 64" fill="none" role="img" aria-label="RuoYi Modern 后台图标">
  <defs>
    <linearGradient id="brand-bg" x1="8" y1="6" x2="56" y2="58" gradientUnits="userSpaceOnUse">
      <stop stop-color="#5A6FCF" />
      <stop offset="1" stop-color="#2F3F7C" />
    </linearGradient>
    <linearGradient id="brand-accent" x1="18" y1="16" x2="44" y2="46" gradientUnits="userSpaceOnUse">
      <stop stop-color="#FFF6E0" />
      <stop offset="1" stop-color="#D8E8FF" />
    </linearGradient>
  </defs>
  <rect x="6" y="6" width="52" height="52" rx="16" fill="url(#brand-bg)" />
  <path d="M22 19h13.8c7.4 0 12.2 4.1 12.2 10.5 0 4.7-2.6 8.1-6.8 9.5L46 45h-9.4l-4-5.2h-4.8V45H22V19zm13 14c3.3 0 5.1-1.2 5.1-3.7 0-2.4-1.8-3.6-5.1-3.6h-7.2V33H35z" fill="url(#brand-accent)" />
  <path d="M47.5 14.5l1.1 3.2 3.1 1.1-3.1 1.1-1.1 3.2-1.1-3.2-3.1-1.1 3.1-1.1 1.1-3.2z" fill="#FFF6E0" />
  <path d="M17.5 42.5l.7 2.1 2.1.7-2.1.7-.7 2.1-.7-2.1-2.1-.7 2.1-.7.7-2.1z" fill="#D8E8FF" opacity=".9" />
</svg>
